<svg xmlns:dc="http://purl.org/dc/elements/1.1/" xmlns:cc="http://creativecommons.org/ns#" xmlns:rdf="http://www.w3.org/1999/02/22-rdf-syntax-ns#" xmlns:svg="http://www.w3.org/2000/svg" xmlns="http://www.w3.org/2000/svg" xmlns:sodipodi="http://sodipodi.sourceforge.net/DTD/sodipodi-0.dtd" xmlns:inkscape="http://www.inkscape.org/namespaces/inkscape" version="1.1" x="0px" y="0px" viewBox="0 0 100 125"><g transform="translate(0,-952.36218)"><path style="text-indent:0;text-transform:none;direction:ltr;block-progression:tb;baseline-shift:baseline;color:#000000;enable-background:accumulate;" d="m 50,987.36218 c 14.1881,0 26.6756,5.66 33.7812,14.34382 a 1.0001,1.0001 0 0 1 0,1.2812 c -7.1057,8.6837 -19.5931,14.375 -33.7812,14.375 -14.1881,0 -26.6756,-5.6913 -33.7812,-14.375 a 1.0001,1.0001 0 0 1 0,-1.2812 C 23.3245,993.02218 35.8119,987.36218 50,987.36218 z m 6,2.4062 c 4.7152,2.2549 8,7.0275 8,12.59382 0,5.5662 -3.2848,10.3701 -8,12.625 10.7344,-1.3105 19.9181,-6.0622 25.625,-12.625 C 75.92,995.79138 66.7386,991.07698 56,989.76838 z m -12,0 c -10.7386,1.3086 -19.92,6.023 -25.625,12.59382 5.7069,6.5628 14.8906,11.3145 25.625,12.625 -4.7152,-2.2549 -8,-7.0588 -8,-12.625 0,-5.56632 3.2848,-10.33892 8,-12.59382 z m 6,0.5938 c -1.6953,0 -3.3206,0.3689 -4.7812,1 3.2031,0.1142 5.7812,2.7701 5.7812,6 0,3.30192 -2.6981,6.00002 -6,6.00002 -3.2401,0 -5.9017,-2.5952 -6,-5.81252 -0.648,1.4769 -1,3.09332 -1,4.81252 0,6.6392 5.3607,12 12,12 6.6393,0 12,-5.3608 12,-12 0,-6.63932 -5.3607,-12.00002 -12,-12.00002 z m -5,3 c -2.2209,0 -4,1.7791 -4,4 0,2.2209 1.7791,4.00002 4,4.00002 2.2209,0 4,-1.77912 4,-4.00002 0,-2.2209 -1.7791,-4 -4,-4 z" fill="#000000" fill-opacity="1" stroke="none" marker="none" visibility="visible" display="inline" overflow="visible"/></g></svg>
